# xmcd
#
# Track frame offsets:
#	150
#	14811
#	28911
#	45348
#	62274
#	77599
#	91406
#	108781
#	123954
#	139756
#	152801
#	166500
#	179707
#	192893
#	209698
#	224776
#	241423
#	256029
#
# Disc length: 3625 seconds
# Revision: 0
# Processed by: cddbd v1.5.2PL0 Copyright (c) Steve Scherf et al.
# Submitted via: dBpowerAMP V12.0
#
DISCID=f60e2712
DTITLE=Jason Aldean - Old Boots, New Dirt (Deluxe Edition)
DYEAR=2014
DGENRE=Country
TTITLE0=Just Gettin' Started
TTITLE1=Show You Off
TTITLE2=Burnin' It Down
TTITLE3=Tryin' To Love Me
TTITLE4=Sweet Little Somethin'
TTITLE5=Laid Back
TTITLE6=Tonight Looks Good On You
TTITLE7=Too Fast
TTITLE8=If My Truck Could Talk
TTITLE9=Old Boots, New Dirt
TTITLE10=I Took It With Me
TTITLE11=Don't Change Gone
TTITLE12=Miss That Girl
TTITLE13=Gonna Know We Were Here
TTITLE14=Two Night Town
TTITLE15=Fast Lanes
TTITLE16=Too Much You For Me
TTITLE17=Ain't No Easy Way
EXTD=
EXTT0=
EXTT1=
EXTT2=
EXTT3=
EXTT4=
EXTT5=
EXTT6=
EXTT7=
EXTT8=
EXTT9=
EXTT10=
EXTT11=
EXTT12=
EXTT13=
EXTT14=
EXTT15=
EXTT16=
EXTT17=
PLAYORDER=
